<?xml version="1.0" encoding="utf-8"?>
<!-- Generator: Adobe Illustrator 23.0.1, SVG Export Plug-In . SVG Version: 6.00 Build 0)  -->
<svg version="1.1" id="Camada_1" xmlns="http://www.w3.org/2000/svg" xmlns:xlink="http://www.w3.org/1999/xlink" x="0px" y="0px"
	 viewBox="0 0 383 387" style="enable-background:new 0 0 383 387;" xml:space="preserve">
<style type="text/css">
	.st0{fill:#00FFFF;}
	.st1{opacity:0.54;}
	.st2{fill:#FBB03B;}
	.st3{fill:#FFFFFF;}
	.st4{opacity:0.5;}
	.st5{opacity:0.42;}
	.st6{fill:none;}
	.st7{fill:#F7931E;}
	.st8{fill:#FF0396;}
</style>
<g>
	<g>
		<g>
			<path class="st0" d="M189.67,288.53l-1.92,1.92c3.38,4.82,5.25,11.05,5.25,18.33c0,17.16-11.09,29.29-28.25,29.29
				c-7.22,0-13.52-2.28-18.32-6.29l-18.36,18.36l-1.49,1.49c9.87,7.48,23,11.43,38.18,11.43c34.02,0,57.54-19.67,57.54-54.29
				c0-14.2-10.91-38.32-10.91-38.32s-2.01-0.51-3.46-0.17L189.67,288.53z"/>
		</g>
		<g class="st1">
			<path class="st2" d="M195.61,288.53l-1.92,1.92c3.38,4.82,5.25,11.05,5.25,18.33c0,17.16-11.09,29.29-28.25,29.29
				c-7.22,0-13.52-2.28-18.32-6.29l-18.36,18.36l-1.49,1.49c9.87,7.48,23,11.43,38.18,11.43c34.02,0,57.54-19.67,57.54-54.29
				c0-16.28-5.25-29.29-14.37-38.49l-1.35,0.17L195.61,288.53z"/>
		</g>
		<g>
			<path class="st2" d="M194.48,288.53l-1.92,1.92c3.38,4.82,5.25,11.05,5.25,18.33c0,17.16-11.09,29.29-28.25,29.29
				c-7.22,0-13.52-2.28-18.32-6.29l-18.36,18.36l-1.49,1.49c9.87,7.48,23,11.43,38.18,11.43c34.02,0,57.54-19.67,57.54-54.29
				c0-16.28-5.25-29.29-14.37-38.49l-1.35-0.11L194.48,288.53z"/>
		</g>
		<g>
			<path class="st3" d="M193.06,288.53l-1.92,1.92c3.38,4.82,5.25,11.05,5.25,18.33c0,17.16-11.09,29.29-28.25,29.29
				c-7.22,0-13.52-2.28-18.32-6.29l-18.36,18.36l-1.49,1.49c9.87,7.48,23,11.43,38.18,11.43c34.02,0,57.54-19.67,57.54-54.29
				c0-16.28-5.25-29.29-14.37-38.49L193.06,288.53z"/>
		</g>
		<g>
			<path class="st0" d="M313.68,255.87l-16.17,20.82c-0.53,0.69-0.04,1.69,0.83,1.69h45.81v-22.51H313.68z"/>
			<path class="st0" d="M340.73,345.75l5.41-12.37v-55h-47.95l-9.74,12.55l-27.22-35.06h-30.62v103.55h28.99v-61.54l25.89,31.21
				h5.18l26.48-31.36v51.42h25.57L340.73,345.75z M331.39,289.42l2.95,3.49c0.41,0.48,1,0.76,1.63,0.76h10.14v4.79
				c0,1.42-1.15,2.57-2.57,2.57h-12.15V289.42z"/>
			<path class="st0" d="M334.16,350h-26.49c0.27,1.48,1.41,2.69,2.93,3.01l5.79,1.23l-1.79,5.17h28.99v-4.02
				c0-0.7-0.49-1.31-1.18-1.46l-4.35-0.93c-1.23-0.26-2.22-1.11-2.69-2.22C335.16,350.31,334.68,350,334.16,350z"/>
		</g>
		<g class="st4">
			<path class="st0" d="M312.27,255.87l-16.17,20.82c-0.53,0.69-0.04,1.69,0.83,1.69h45.81v-22.51H312.27z"/>
			<path class="st0" d="M339.31,345.75l5.41-12.37v-55h-47.95l-9.74,12.55l-27.22-35.06h-30.62v103.55h28.99v-61.54l25.89,31.21
				h5.18l26.48-31.36v51.42h25.57L339.31,345.75z M329.97,289.42l2.95,3.49c0.41,0.48,1,0.76,1.63,0.76h10.14v4.79
				c0,1.42-1.15,2.57-2.57,2.57h-12.15V289.42z"/>
			<path class="st0" d="M332.74,350h-26.49c0.27,1.48,1.41,2.69,2.93,3.01l5.79,1.23l-1.79,5.17h28.99v-4.02
				c0-0.7-0.49-1.31-1.18-1.46l-4.35-0.93c-1.23-0.26-2.22-1.11-2.69-2.22C333.75,350.31,333.27,350,332.74,350z"/>
		</g>
		<g class="st5">
			<path class="st2" d="M316.8,255.87l-16.17,20.82c-0.53,0.69-0.04,1.69,0.83,1.69h45.81v-22.51H316.8z"/>
			<path class="st2" d="M343.84,345.75l5.41-12.37v-55H301.3l-9.74,12.55l-27.22-35.06h-30.62v103.55h28.99v-61.54l25.89,31.21h5.18
				l26.48-31.36v51.42h25.57L343.84,345.75z M334.5,289.42l2.95,3.49c0.41,0.48,1,0.76,1.63,0.76h10.14v4.79
				c0,1.42-1.15,2.57-2.57,2.57H334.5V289.42z"/>
			<path class="st2" d="M337.27,350h-26.49c0.27,1.48,1.41,2.69,2.93,3.01l5.79,1.23l-1.79,5.17h28.99v-4.02
				c0-0.7-0.49-1.31-1.18-1.46l-4.35-0.93c-1.23-0.26-2.22-1.11-2.69-2.22C338.28,350.31,337.8,350,337.27,350z"/>
		</g>
		<g>
			<path class="st2" d="M315.67,255.87l-16.17,20.82c-0.53,0.69-0.04,1.69,0.83,1.69h45.81v-22.51H315.67z"/>
			<path class="st2" d="M342.71,345.75l5.41-12.37v-55h-47.95l-9.74,12.55l-27.22-35.06h-30.62v103.55h28.99v-61.54l25.89,31.21
				h5.18l26.48-31.36v51.42h25.57L342.71,345.75z M333.37,289.42l2.95,3.49c0.41,0.48,1,0.76,1.63,0.76h10.14v4.79
				c0,1.42-1.15,2.57-2.57,2.57h-12.15V289.42z"/>
			<path class="st2" d="M336.14,350h-26.49c0.27,1.48,1.41,2.69,2.93,3.01l5.79,1.23l-1.79,5.17h28.99v-4.02
				c0-0.7-0.49-1.31-1.18-1.46l-4.35-0.93c-1.23-0.26-2.22-1.11-2.69-2.22C337.14,350.31,336.67,350,336.14,350z"/>
		</g>
		<path class="st3" d="M97.28,284.12c-7.1-5.33-15.24-7.1-24.26-7.1c-7.1,0-14.05,2.22-14.05,7.69c0,7.1,6.95,8.14,17.16,9.17
			c20.56,2.22,42.01,10.5,42.01,34.32c0,23.52-22.19,33.58-45.41,33.73c-18.64,0.15-31.95-3.11-46.3-18.2l16.12-18.49
			c10.21,9.91,21.6,11.69,30.33,11.69c9.62,0,16.27-3.4,16.27-9.17c0-5.18-5.92-8.43-17.31-9.47c-22.63-2.07-42.16-7.84-42.16-33.58
			c0-21.89,21.45-31.36,43.34-31.36c15.53,0,27.66,3.55,38.76,12.28L97.28,284.12z"/>
		<path class="st6" d="M347.24,298.46v-4.79H337.1c-0.63,0-1.23-0.28-1.63-0.76l-2.95-3.49v11.61h12.15
			C346.09,301.03,347.24,299.88,347.24,298.46z"/>
		<path class="st6" d="M347.24,298.46v-4.79H337.1c-0.63,0-1.23-0.28-1.63-0.76l-2.95-3.49v11.61h12.15
			C346.09,301.03,347.24,299.88,347.24,298.46z"/>
		<g>
			<path class="st3" d="M314.82,255.87l-16.17,20.82c-0.53,0.69-0.04,1.69,0.83,1.69h45.81v-22.51H314.82z"/>
			<g>
				<path class="st3" d="M344.67,301.03h-12.15v-11.61l2.95,3.49c0.41,0.48,1,0.76,1.63,0.76h5.89v-0.28h4.28v-15h-47.95
					l-9.74,12.55l-27.22-35.06h-30.62v103.55h28.99v-61.54l25.89,31.21h5.18l26.48-31.36v51.42h25.57l-1.98-3.4l5.41-12.37v-34.05
					h-0.19C346.73,300.32,345.78,301.03,344.67,301.03z"/>
			</g>
			<path class="st3" d="M335.29,350H308.8c0.27,1.48,1.41,2.69,2.93,3.01l5.79,1.23l-1.79,5.17h28.99v-4.02
				c0-0.7-0.49-1.31-1.18-1.46l-4.35-0.93c-1.23-0.26-2.22-1.11-2.69-2.22C336.3,350.31,335.82,350,335.29,350z"/>
		</g>
		<polygon class="st7" points="239.97,237.07 210.61,266.42 190.83,286.21 149.19,327.84 129.1,347.93 111.85,365.19 112.85,366.19
			130.17,348.87 150.16,328.88 191.79,287.25 211.68,267.36 240.97,238.07 		"/>
		<path class="st3" d="M170.39,253.35c-33.64,0-57.21,19.99-57.54,53.58c5.16,5.12,8.39,12.02,8.39,21.27c0,3.13-0.4,6.02-1.13,8.68
			c2.45,4.18,5.47,7.87,8.99,11.05l20.09-20.09c-4.47-5.09-7.05-12.06-7.05-20.2c0-17.16,11.54-29.29,28.25-29.29
			c8.51,0,15.52,2.84,20.43,7.86l19.79-19.79C200.57,257.9,186.69,253.35,170.39,253.35z"/>
		<g>
			<path class="st7" d="M356.58,243.23c-1.96,0-2.94-1.45-3.73-2.62c-0.8-1.19-1.35-1.91-2.41-1.91c-1.06,0-1.6,0.73-2.41,1.91
				c-0.79,1.17-1.77,2.62-3.73,2.62c-1.96,0-2.94-1.45-3.73-2.62c-0.8-1.19-1.35-1.91-2.41-1.91c-1.06,0-1.6,0.73-2.41,1.91
				c-0.79,1.17-1.77,2.62-3.73,2.62s-2.94-1.45-3.73-2.62c-0.8-1.19-1.35-1.91-2.41-1.91c-1.06,0-1.6,0.73-2.41,1.91
				c-0.79,1.17-1.77,2.62-3.73,2.62c-1.96,0-2.94-1.45-3.73-2.62c-0.8-1.19-1.35-1.91-2.4-1.91s-1.6,0.73-2.4,1.91
				c-0.79,1.17-1.77,2.62-3.73,2.62s-2.94-1.45-3.73-2.62c-0.8-1.19-1.35-1.91-2.4-1.91c-1.06,0-1.6,0.73-2.41,1.91
				c-0.79,1.17-1.77,2.62-3.73,2.62s-2.94-1.45-3.73-2.62c-0.8-1.19-1.35-1.91-2.4-1.91s-1.6,0.73-2.4,1.91
				c-0.79,1.17-1.77,2.62-3.73,2.62s-2.94-1.45-3.73-2.62c-0.8-1.19-1.35-1.91-2.4-1.91c-1.06,0-1.6,0.73-2.4,1.91
				c-0.79,1.17-1.77,2.62-3.73,2.62c-1.96,0-2.94-1.45-3.73-2.62c-0.8-1.19-1.35-1.91-2.4-1.91c-1.06,0-1.6,0.73-2.41,1.91
				c-0.79,1.17-1.77,2.62-3.73,2.62c-1.96,0-2.94-1.45-3.73-2.62c-0.8-1.19-1.35-1.91-2.4-1.91c-1.06,0-1.6,0.73-2.4,1.91
				c-0.79,1.17-1.77,2.62-3.73,2.62c-1.96,0-2.94-1.45-3.73-2.62c-0.8-1.19-1.35-1.91-2.4-1.91v-1.6c1.96,0,2.94,1.45,3.73,2.62
				c0.8,1.19,1.35,1.91,2.4,1.91s1.6-0.73,2.4-1.91c0.79-1.17,1.77-2.62,3.73-2.62c1.96,0,2.94,1.45,3.73,2.62
				c0.8,1.19,1.35,1.91,2.4,1.91s1.6-0.73,2.4-1.91c0.79-1.17,1.77-2.62,3.73-2.62c1.96,0,2.94,1.45,3.73,2.62
				c0.8,1.19,1.35,1.91,2.4,1.91c1.06,0,1.6-0.73,2.41-1.91c0.79-1.17,1.77-2.62,3.73-2.62s2.94,1.45,3.73,2.62
				c0.8,1.19,1.35,1.91,2.4,1.91s1.6-0.73,2.4-1.91c0.79-1.17,1.77-2.62,3.73-2.62s2.94,1.45,3.73,2.62c0.8,1.19,1.35,1.91,2.4,1.91
				c1.06,0,1.6-0.73,2.4-1.91c0.79-1.17,1.77-2.62,3.73-2.62c1.96,0,2.94,1.45,3.73,2.62c0.8,1.19,1.35,1.91,2.4,1.91
				s1.6-0.73,2.4-1.91c0.79-1.17,1.77-2.62,3.73-2.62c1.96,0,2.94,1.45,3.73,2.62c0.8,1.19,1.35,1.91,2.4,1.91s1.6-0.73,2.41-1.91
				c0.79-1.17,1.77-2.62,3.73-2.62s2.94,1.45,3.73,2.62c0.8,1.19,1.35,1.91,2.41,1.91c1.06,0,1.6-0.73,2.41-1.91
				c0.79-1.17,1.77-2.62,3.73-2.62s2.94,1.45,3.73,2.62c0.8,1.19,1.35,1.91,2.41,1.91c1.06,0,1.6-0.73,2.41-1.91
				c0.79-1.17,1.77-2.62,3.73-2.62s2.94,1.45,3.73,2.62c0.8,1.19,1.35,1.91,2.41,1.91V243.23z"/>
		</g>
	</g>
	<g>
		<path class="st0" d="M59.42,72.84c5.45,1.3,8.48,5.45,8.48,10.65c0,8.11-5.88,11.88-13.74,11.88H36.15V52.04H52
			c7.74,0,13.86,3.16,13.86,11.39C65.86,67.58,63.88,71.42,59.42,72.84z M39.25,54.83v16.96h12.87c5.94,0,10.71-1.73,10.71-8.42
			c0-6.75-4.95-8.54-10.96-8.54H39.25z M39.25,74.45v18.07h14.73c6,0,10.77-2.6,10.77-9.04c0-6.93-5.45-9.04-12.32-9.04H39.25z"/>
		<path class="st0" d="M96.43,96.05c-12.56,0-21.85-8.97-21.85-22.34s9.47-22.34,21.85-22.34c12.56,0,21.97,8.97,21.97,22.34
			C118.4,86.83,109.36,96.05,96.43,96.05z M96.43,93.14c10.83,0,18.81-7.98,18.81-19.43c0-11.39-7.86-19.37-18.75-19.37
			s-18.75,7.92-18.75,19.37C77.74,85.16,85.66,93.14,96.43,93.14z"/>
		<path class="st0" d="M120.62,54.89v-2.85h31.56v2.85h-14.23v40.48h-3.09V54.89H120.62z"/>
		<path class="st0" d="M176.26,96.05c-12.56,0-21.85-8.97-21.85-22.34s9.47-22.34,21.85-22.34c12.56,0,21.97,8.97,21.97,22.34
			C198.23,86.83,189.19,96.05,176.26,96.05z M176.26,93.14c10.83,0,18.81-7.98,18.81-19.43c0-11.39-7.86-19.37-18.75-19.37
			s-18.75,7.92-18.75,19.37C157.57,85.16,165.49,93.14,176.26,93.14z"/>
	</g>
	<g>
		<path class="st3" d="M269.42,101.79h-46.2v44.25h-7.1v-97.4h56.91v6.26h-49.81v40.49h46.2V101.79z"/>
		<path class="st3" d="M349.3,54.76h-49.26v37.85h47.17v6.26h-47.17v40.77h49.67v6.4h-56.63v-97.4h56.21V54.76z M316.6,39.04
			l11.97-18.23l5.84,2.78v0.7l-11.69,15.17h-6.12V39.04z"/>
	</g>
	<g>
		<g>
			<path class="st7" d="M40.31,167.44l0.52,25v36.82h-5.33v-73.32h2.09l50.1,61.61l-0.52-26.57v-35.04h5.33v73.32h-1.78
				L40.31,167.44z"/>
			<path class="st7" d="M155.47,160.64h-37.03v28.45h35.46v4.71h-35.46v30.65h37.34v4.81h-42.57v-73.22h42.26V160.64z"/>
			<path class="st7" d="M171.17,210.12c0.84,11.51,14.33,15.58,24.27,15.58c10.56,0,22.49-4.92,22.8-16.42
				c0.31-12.34-12.03-13.81-23.43-15.48c-13.39-1.67-26.67-3.87-26.67-18.51c0-14.02,13.91-20.4,26.15-20.4
				c13.6,0,26.36,5.33,27.2,19.14h-4.92c-0.84-11.3-13.08-14.43-22.28-14.43c-10.25,0-20.82,4.6-20.82,15.59
				c0,12.13,12.55,12.97,22.17,14.12c14.12,1.99,28.14,4.81,27.82,20.08c-0.31,14.43-14.23,20.92-27.82,20.92
				c-13.39,0-28.35-5.65-29.18-20.19H171.17z"/>
			<path class="st7" d="M238.74,210.12c0.84,11.51,14.33,15.58,24.27,15.58c10.56,0,22.49-4.92,22.8-16.42
				c0.31-12.34-12.03-13.81-23.43-15.48c-13.39-1.67-26.67-3.87-26.67-18.51c0-14.02,13.91-20.4,26.15-20.4
				c13.6,0,26.36,5.33,27.2,19.14h-4.92c-0.84-11.3-13.08-14.43-22.28-14.43c-10.25,0-20.82,4.6-20.82,15.59
				c0,12.13,12.55,12.97,22.17,14.12c14.12,1.99,28.14,4.81,27.82,20.08c-0.31,14.43-14.23,20.92-27.82,20.92
				c-13.39,0-28.35-5.65-29.18-20.19H238.74z"/>
			<path class="st7" d="M348.99,160.64h-37.03v28.45h35.46v4.71h-35.46v30.65h37.34v4.81h-42.57v-73.22h42.26V160.64z"/>
		</g>
	</g>
	<rect x="33.94" y="120.92" class="st8" width="168.56" height="6.49"/>
</g>
</svg>
